<svg width="1534" height="66" viewBox="0 0 1534 66" fill="none" xmlns="http://www.w3.org/2000/svg">
<path d="M43.776 37.944V18.04H59.776V39.864C59.776 42.296 59.2213 44.6853 58.112 47.032C57.0453 49.336 55.3387 51.448 52.992 53.368C50.688 55.288 47.7013 56.824 44.032 57.976C40.4053 59.0853 36.0533 59.64 30.976 59.64C27.4347 59.64 23.936 59.32 20.48 58.68C17.0667 57.9973 13.9733 56.9093 11.2 55.416C8.42667 53.9227 6.208 51.9387 4.544 49.464C2.88 46.9467 2.02667 43.8533 1.984 40.184H17.344C17.9413 42.8293 19.3067 44.7067 21.44 45.816C23.616 46.9253 26.7947 47.48 30.976 47.48C34.5173 47.48 37.2053 47.0747 39.04 46.264C40.8747 45.4533 42.112 44.3227 42.752 42.872C43.4347 41.4213 43.776 39.7787 43.776 37.944ZM106.81 60.28C97.5087 60.28 90.0207 59.4693 84.346 57.848C78.6713 56.184 74.5327 53.752 71.93 50.552C69.37 47.3093 68.09 43.2987 68.09 38.52C68.09 33.7413 69.37 29.752 71.93 26.552C74.5327 23.3093 78.6713 20.8773 84.346 19.256C90.0207 17.592 97.5087 16.76 106.81 16.76C116.111 16.76 123.599 17.592 129.274 19.256C134.949 20.8773 139.066 23.3093 141.626 26.552C144.229 29.752 145.53 33.7413 145.53 38.52C145.53 43.2987 144.229 47.3093 141.626 50.552C139.066 53.752 134.949 56.184 129.274 57.848C123.599 59.4693 116.111 60.28 106.81 60.28ZM106.81 48.12C111.205 48.12 115.002 47.864 118.202 47.352C121.402 46.7973 123.877 45.8373 125.626 44.472C127.375 43.064 128.25 41.08 128.25 38.52C128.25 35.96 127.375 33.9973 125.626 32.632C123.877 31.224 121.402 30.264 118.202 29.752C115.002 29.1973 111.205 28.92 106.81 28.92C102.415 28.92 98.554 29.1973 95.226 29.752C91.9407 30.264 89.3593 31.224 87.482 32.632C85.6473 33.9973 84.73 35.96 84.73 38.52C84.73 41.08 85.6473 43.064 87.482 44.472C89.3593 45.8373 91.9407 46.7973 95.226 47.352C98.554 47.864 102.415 48.12 106.81 48.12ZM151.615 43.96H169.087C169.386 44.856 170.26 45.624 171.711 46.264C173.162 46.8613 175.103 47.3307 177.535 47.672C180.01 47.9707 182.868 48.12 186.111 48.12C189.311 48.12 191.828 48.0347 193.663 47.864C195.54 47.6507 196.863 47.3093 197.631 46.84C198.399 46.328 198.783 45.6453 198.783 44.792C198.783 43.9813 198.164 43.3627 196.927 42.936C195.69 42.4667 193.492 42.1467 190.335 41.976C187.178 41.8053 182.74 41.72 177.023 41.72C172.756 41.72 169.066 41.528 165.951 41.144C162.879 40.7173 160.34 40.0773 158.335 39.224C156.372 38.328 154.922 37.2187 153.983 35.896C153.044 34.5307 152.575 32.9093 152.575 31.032C152.575 27.7893 153.663 25.1227 155.839 23.032C158.058 20.8987 161.386 19.32 165.823 18.296C170.303 17.2293 175.892 16.696 182.591 16.696C192.404 16.696 199.892 18.1253 205.055 20.984C210.26 23.8 212.863 27.8747 212.863 33.208H196.287C196.074 31.8 194.751 30.7333 192.319 30.008C189.887 29.24 186.431 28.856 181.951 28.856C177.514 28.856 174.207 29.112 172.031 29.624C169.898 30.136 168.831 31.0107 168.831 32.248C168.831 32.888 169.13 33.4 169.727 33.784C170.324 34.168 171.348 34.488 172.799 34.744C174.292 34.9573 176.383 35.1067 179.071 35.192C181.759 35.2773 185.172 35.32 189.311 35.32C193.876 35.32 197.759 35.5547 200.959 36.024C204.159 36.4507 206.74 37.112 208.703 38.008C210.708 38.904 212.159 40.056 213.055 41.464C213.951 42.8293 214.399 44.4507 214.399 46.328C214.399 49.5707 213.375 52.216 211.327 54.264C209.279 56.312 206.036 57.8267 201.599 58.808C197.162 59.7893 191.359 60.28 184.191 60.28C180.138 60.28 176.404 60.0453 172.991 59.576C169.62 59.1067 166.612 58.424 163.967 57.528C161.322 56.5893 159.082 55.4587 157.247 54.136C155.412 52.7707 154.004 51.256 153.023 49.592C152.084 47.8853 151.615 46.008 151.615 43.96ZM237.418 41.72V46.84H286.058V59H221.418V18.04H285.93V30.2H237.418V35.32H277.098V41.72H237.418ZM309.203 48.44V37.24H341.139C342.419 37.24 343.486 37.048 344.339 36.664C345.235 36.2373 345.683 35.3627 345.683 34.04C345.683 32.6747 345.235 31.8 344.339 31.416C343.486 31.032 342.419 30.84 341.139 30.84H310.227V59H294.227V18.04H338.643C341.843 18.04 344.83 18.2747 347.603 18.744C350.419 19.1707 352.872 19.96 354.963 21.112C357.054 22.264 358.696 23.8853 359.891 25.976C361.086 28.0667 361.683 30.7547 361.683 34.04C361.683 37.3253 361.086 39.928 359.891 41.848C358.696 43.768 357.054 45.1973 354.963 46.136C352.872 47.0747 350.419 47.6933 347.603 47.992C344.83 48.2907 341.843 48.44 338.643 48.44H309.203ZM383.364 32.184H428.42V44.344H383.364V32.184ZM426.628 18.04H442.628V59H426.628V18.04ZM369.668 18.04H385.668V59H369.668V18.04ZM487.418 41.72V46.84H536.058V59H471.418V18.04H535.93V30.2H487.418V35.32H527.098V41.72H487.418ZM595.171 54.136H585.571L620.515 18.04H636.515V59H620.515V31.096L625.315 33.08L600.035 59H580.835L555.491 33.144L560.355 31.16V59H544.355V18.04H560.355L595.171 54.136ZM696.296 54.136H686.696L721.64 18.04H737.64V59H721.64V31.096L726.44 33.08L701.16 59H681.96L656.616 33.144L661.48 31.16V59H645.48V18.04H661.48L696.296 54.136ZM757.101 52.792V43.192H800.877V52.792H757.101ZM742.765 59L770.221 18.04H788.013L815.725 59H798.125L774.381 22.328H783.917L760.365 59H742.765ZM885.047 46.456L879.095 49.848V18.04H895.095V59H879.095L830.903 31.096L836.855 27.64V59H820.855V18.04H836.855L885.047 46.456ZM961.579 35.64V18.04H977.579V38.52C977.579 42.1467 976.896 45.24 975.531 47.8C974.208 50.3173 972.352 52.408 969.963 54.072C967.573 55.6933 964.821 56.952 961.707 57.848C958.592 58.744 955.243 59.3627 951.659 59.704C948.117 60.088 944.512 60.28 940.843 60.28C936.96 60.28 933.205 60.088 929.579 59.704C925.952 59.3627 922.581 58.744 919.467 57.848C916.395 56.952 913.707 55.6933 911.403 54.072C909.099 52.408 907.285 50.3173 905.963 47.8C904.683 45.24 904.043 42.1467 904.043 38.52V18.04H920.043V35.64C920.043 39.0533 920.875 41.656 922.539 43.448C924.203 45.24 926.571 46.4773 929.643 47.16C932.757 47.8 936.491 48.12 940.843 48.12C945.067 48.12 948.736 47.8 951.851 47.16C954.965 46.4773 957.355 45.24 959.019 43.448C960.725 41.656 961.579 39.0533 961.579 35.64ZM1002.54 41.72V46.84H1051.18V59H986.543V18.04H1051.05V30.2H1002.54V35.32H1042.22V41.72H1002.54ZM1075.48 18.04V46.84H1112.79V59H1059.48V18.04H1075.48ZM1155.67 41.72V46.84H1204.31V59H1139.67V18.04H1204.18V30.2H1155.67V35.32H1195.35V41.72H1155.67ZM1263.42 54.136H1253.82L1288.77 18.04H1304.77V59H1288.77V31.096L1293.57 33.08L1268.29 59H1249.09L1223.74 33.144L1228.61 31.16V59H1212.61V18.04H1228.61L1263.42 54.136ZM1329.73 41.72V46.84H1378.37V59H1313.73V18.04H1378.24V30.2H1329.73V35.32H1369.41V41.72H1329.73ZM1420.78 38.84V35.256L1457.71 59H1433.9L1402.54 37.24L1431.47 18.04H1454.25L1420.78 38.84ZM1386.67 18.04H1402.67V59H1386.67V18.04ZM1474.91 52.792V43.192H1518.69V52.792H1474.91ZM1460.58 59L1488.03 18.04H1505.83L1533.54 59H1515.94L1492.19 22.328H1501.73L1478.18 59H1460.58Z" fill="black"/>
</svg>
