<svg width="798" height="163" viewBox="0 0 798 163" fill="none" xmlns="http://www.w3.org/2000/svg">
<path d="M209.016 158C196.52 158 186.461 155.057 178.838 149.171C171.215 143.129 165.655 134.3 162.159 122.682C158.72 110.91 157 96.349 157 79C157 61.651 158.72 47.1676 162.159 35.55C165.655 23.7775 171.215 14.948 178.838 9.06176C186.461 3.02059 196.52 0 209.016 0C221.511 0 231.57 3.02059 239.193 9.06176C246.817 14.948 252.348 23.7775 255.787 35.55C259.283 47.1676 261.031 61.651 261.031 79C261.031 96.349 259.283 110.91 255.787 122.682C252.348 134.3 246.817 143.129 239.193 149.171C231.57 155.057 221.511 158 209.016 158ZM209.016 113.853C214.919 113.853 220.021 112.924 224.319 111.065C228.618 109.051 231.943 105.566 234.293 100.609C236.643 95.4971 237.818 88.2941 237.818 79C237.818 69.7059 236.643 62.5804 234.293 57.6235C231.943 52.5118 228.618 49.0265 224.319 47.1676C220.021 45.1539 214.919 44.1471 209.016 44.1471C203.112 44.1471 197.925 45.1539 193.454 47.1676C189.04 49.0265 185.573 52.5118 183.051 57.6235C180.586 62.5804 179.354 69.7059 179.354 79C179.354 88.2941 180.586 95.4971 183.051 100.609C185.573 105.566 189.04 109.051 193.454 111.065C197.925 112.924 203.112 113.853 209.016 113.853Z" fill="#080808"/>
<path d="M292.161 115.015V74.3529H335.064C336.783 74.3529 338.216 73.6559 339.362 72.2618C340.566 70.7127 341.168 67.5373 341.168 62.7353C341.168 57.7784 340.566 54.6029 339.362 53.2088C338.216 51.8147 336.783 51.1176 335.064 51.1176H293.537V153.353H272.043V4.64705H331.71C336.009 4.64705 340.022 5.49902 343.747 7.20295C347.53 8.75196 350.826 11.6176 353.634 15.8C356.443 19.9824 358.65 25.8686 360.255 33.4588C361.859 41.049 362.662 50.8078 362.662 62.7353C362.662 74.6627 361.859 84.1118 360.255 91.0824C358.65 98.0529 356.443 103.242 353.634 106.65C350.826 110.058 347.53 112.304 343.747 113.388C340.022 114.473 336.009 115.015 331.71 115.015H292.161Z" fill="#080808"/>
<path d="M473.591 91.3147C473.304 106.03 471.327 118.345 467.658 128.259C463.99 138.173 458.574 145.608 451.409 150.565C444.302 155.522 435.303 158 424.412 158C416.101 158 408.65 156.761 402.059 154.282C395.467 151.959 389.85 147.931 385.207 142.2C380.564 136.314 377.011 128.336 374.546 118.268C372.081 108.199 370.849 95.4971 370.849 80.1618C370.849 64.8265 372.081 52.0471 374.546 41.8235C377.011 31.4451 380.564 23.2353 385.207 17.1941C389.85 10.998 395.467 6.58333 402.059 3.95C408.65 1.31667 416.101 0 424.412 0C435.303 0 444.33 2.71079 451.495 8.13236C458.66 13.399 464.076 21.2216 467.744 31.6C471.413 41.9784 473.39 54.6029 473.677 69.4735H451.323C450.635 64.5167 449.374 60.1794 447.54 56.4618C445.706 52.5892 442.955 49.5686 439.286 47.4C435.618 45.2314 430.66 44.1471 424.412 44.1471C417.076 44.1471 411.115 45.3863 406.529 47.8647C401.944 50.1882 398.591 53.9833 396.47 59.25C394.349 64.5167 393.289 71.4873 393.289 80.1618C393.289 88.0618 394.349 94.4902 396.47 99.4471C398.591 104.404 401.944 108.044 406.529 110.368C411.115 112.691 417.076 113.853 424.412 113.853C430.66 113.853 435.589 112.846 439.2 110.832C442.869 108.819 445.62 106.108 447.454 102.7C449.288 99.1373 450.549 95.3422 451.237 91.3147H473.591Z" fill="#080808"/>
<path d="M536.044 158C523.549 158 513.49 155.057 505.867 149.171C498.244 143.129 492.684 134.3 489.187 122.682C485.748 110.91 484.029 96.349 484.029 79C484.029 61.651 485.748 47.1676 489.187 35.55C492.684 23.7775 498.244 14.948 505.867 9.06176C513.49 3.02059 523.549 0 536.044 0C548.54 0 558.599 3.02059 566.222 9.06176C573.845 14.948 579.377 23.7775 582.816 35.55C586.312 47.1676 588.06 61.651 588.06 79C588.06 96.349 586.312 110.91 582.816 122.682C579.377 134.3 573.845 143.129 566.222 149.171C558.599 155.057 548.54 158 536.044 158ZM536.044 113.853C541.948 113.853 547.049 112.924 551.348 111.065C555.647 109.051 558.971 105.566 561.322 100.609C563.672 95.4971 564.847 88.2941 564.847 79C564.847 69.7059 563.672 62.5804 561.322 57.6235C558.971 52.5118 555.647 49.0265 551.348 47.1676C547.049 45.1539 541.948 44.1471 536.044 44.1471C530.141 44.1471 524.954 45.1539 520.483 47.1676C516.069 49.0265 512.602 52.5118 510.08 57.6235C507.615 62.5804 506.383 69.7059 506.383 79C506.383 88.2941 507.615 95.4971 510.08 100.609C512.602 105.566 516.069 109.051 520.483 111.065C524.954 112.924 530.141 113.853 536.044 113.853Z" fill="#080808"/>
<path d="M661.147 4.64705C668.885 4.64705 675.275 6.66078 680.319 10.6882C685.363 14.7157 689.318 20.2147 692.184 27.1853C695.05 34.1559 697.056 42.1333 698.202 51.1176C699.406 59.9471 700.008 69.2412 700.008 79C700.008 88.7588 699.349 98.1304 698.03 107.115C696.712 115.944 694.534 123.844 691.496 130.815C688.516 137.785 684.532 143.284 679.546 147.312C674.616 151.339 668.483 153.353 661.147 153.353H599.244V4.64705H661.147ZM620.738 106.882H660.287C663.497 106.882 666.219 106.34 668.455 105.256C670.69 104.017 672.467 102.235 673.785 99.9118C675.161 97.5882 676.135 94.7226 676.708 91.3147C677.339 87.752 677.654 83.6471 677.654 79C677.654 74.3529 677.339 70.3255 676.708 66.9176C676.135 63.3549 675.161 60.4118 673.785 58.0882C672.467 55.7647 670.69 54.0608 668.455 52.9765C666.219 51.7373 663.497 51.1176 660.287 51.1176H620.738V106.882Z" fill="#080808"/>
<path d="M732.658 90.6176V109.206H798V153.353H711.164V4.64705H797.828V48.7941H732.658V67.3824H785.963V90.6176H732.658Z" fill="#080808"/>
<g filter="url(#filter0_d_5_12)">
<rect x="4" y="7" width="55" height="101" rx="10" fill="#080808"/>
</g>
<g filter="url(#filter1_d_5_12)">
<rect x="68" y="7" width="55" height="61" rx="10" fill="#080808"/>
</g>
<g filter="url(#filter2_d_5_12)">
<rect x="68" y="79" width="55" height="76" rx="10" fill="#080808"/>
</g>
<g filter="url(#filter3_d_5_12)">
<rect x="4" y="118" width="55" height="37" rx="10" fill="#080808"/>
</g>
<defs>
<filter id="filter0_d_5_12" x="0" y="7" width="63" height="109" filterUnits="userSpaceOnUse" color-interpolation-filters="sRGB">
<feFlood flood-opacity="0" result="BackgroundImageFix"/>
<feColorMatrix in="SourceAlpha" type="matrix" values="0 0 0 0 0 0 0 0 0 0 0 0 0 0 0 0 0 0 127 0" result="hardAlpha"/>
<feOffset dy="4"/>
<feGaussianBlur stdDeviation="2"/>
<feComposite in2="hardAlpha" operator="out"/>
<feColorMatrix type="matrix" values="0 0 0 0 0 0 0 0 0 0 0 0 0 0 0 0 0 0 0.25 0"/>
<feBlend mode="normal" in2="BackgroundImageFix" result="effect1_dropShadow_5_12"/>
<feBlend mode="normal" in="SourceGraphic" in2="effect1_dropShadow_5_12" result="shape"/>
</filter>
<filter id="filter1_d_5_12" x="64" y="7" width="63" height="69" filterUnits="userSpaceOnUse" color-interpolation-filters="sRGB">
<feFlood flood-opacity="0" result="BackgroundImageFix"/>
<feColorMatrix in="SourceAlpha" type="matrix" values="0 0 0 0 0 0 0 0 0 0 0 0 0 0 0 0 0 0 127 0" result="hardAlpha"/>
<feOffset dy="4"/>
<feGaussianBlur stdDeviation="2"/>
<feComposite in2="hardAlpha" operator="out"/>
<feColorMatrix type="matrix" values="0 0 0 0 0 0 0 0 0 0 0 0 0 0 0 0 0 0 0.25 0"/>
<feBlend mode="normal" in2="BackgroundImageFix" result="effect1_dropShadow_5_12"/>
<feBlend mode="normal" in="SourceGraphic" in2="effect1_dropShadow_5_12" result="shape"/>
</filter>
<filter id="filter2_d_5_12" x="64" y="79" width="63" height="84" filterUnits="userSpaceOnUse" color-interpolation-filters="sRGB">
<feFlood flood-opacity="0" result="BackgroundImageFix"/>
<feColorMatrix in="SourceAlpha" type="matrix" values="0 0 0 0 0 0 0 0 0 0 0 0 0 0 0 0 0 0 127 0" result="hardAlpha"/>
<feOffset dy="4"/>
<feGaussianBlur stdDeviation="2"/>
<feComposite in2="hardAlpha" operator="out"/>
<feColorMatrix type="matrix" values="0 0 0 0 0 0 0 0 0 0 0 0 0 0 0 0 0 0 0.25 0"/>
<feBlend mode="normal" in2="BackgroundImageFix" result="effect1_dropShadow_5_12"/>
<feBlend mode="normal" in="SourceGraphic" in2="effect1_dropShadow_5_12" result="shape"/>
</filter>
<filter id="filter3_d_5_12" x="0" y="118" width="63" height="45" filterUnits="userSpaceOnUse" color-interpolation-filters="sRGB">
<feFlood flood-opacity="0" result="BackgroundImageFix"/>
<feColorMatrix in="SourceAlpha" type="matrix" values="0 0 0 0 0 0 0 0 0 0 0 0 0 0 0 0 0 0 127 0" result="hardAlpha"/>
<feOffset dy="4"/>
<feGaussianBlur stdDeviation="2"/>
<feComposite in2="hardAlpha" operator="out"/>
<feColorMatrix type="matrix" values="0 0 0 0 0 0 0 0 0 0 0 0 0 0 0 0 0 0 0.25 0"/>
<feBlend mode="normal" in2="BackgroundImageFix" result="effect1_dropShadow_5_12"/>
<feBlend mode="normal" in="SourceGraphic" in2="effect1_dropShadow_5_12" result="shape"/>
</filter>
</defs>
</svg>
